# xmcd CD database file
#
# Track frame offsets:
#	150
#	14685
#	29835
#	44177
#	56312
#	69572
#	83737
#	95802
#	109150
#	122052
#	135595
#	149700
#	166022
#	180737
#	195072
#	207442
#	221322
#	233560
#	247947
#	262310
#	276320
#	291295
#
# Disc length: 4042 seconds
#
# Revision: 0
# Processed by: cddbd v1.4PL0 Copyright (c) Steve Scherf et al.
# Submitted via: CDex 1.50
#
DISCID=540fc816
DTITLE=Stan Kenton - The Artistry of Stan Kenton
DYEAR=1997
DGENRE=Jazz
TTITLE0=Eager Beaver
TTITLE1=Artistry in Rythm
TTITLE2=And Her Tears Flowed Like Wine
TTITLE3=Balboa Bash
TTITLE4=Travellin' Man
TTITLE5=Southern Scandal
TTITLE6=Artistry Jumps
TTITLE7=Painted Rythm
TTITLE8=Opus in Pastels
TTITLE9=Artistry in Boogie
TTITLE10=Come Back to Sorrento
TTITLE11=Peg O' My Heart
TTITLE12=Artistry in Percussion
TTITLE13=Safranski
TTITLE14=Ecuador
TTITLE15=Cocktails for Two
TTITLE16=Fantasy
TTITLE17=Concerto To End All Concertos
TTITLE18=Artistry in Bolero
TTITLE19=Intermission Riff
TTITLE20=Are You Livin' Old Man?
TTITLE21=Extra track 22
EXTD=YEAR: 1997
EXTT0=
EXTT1=
EXTT2=
EXTT3=
EXTT4=
EXTT5=
EXTT6=
EXTT7=
EXTT8=
EXTT9=
EXTT10=
EXTT11=
EXTT12=
EXTT13=
EXTT14=
EXTT15=
EXTT16=
EXTT17=
EXTT18=
EXTT19=
EXTT20=
EXTT21=
PLAYORDER=
